<svg
   width="317.50043mm"
   height="317.50146mm"
   viewBox="0 0 317.50043 317.50146"
   xmlns:inkscape="http://www.inkscape.org/namespaces/inkscape"
   xmlns:sodipodi="http://sodipodi.sourceforge.net/DTD/sodipodi-0.dtd"
   xmlns="http://www.w3.org/2000/svg"
>
  <g
     transform="translate(-96.599003,-138.17336)">
    <path
       d="m 255.35799,138.17336 c -5.47969,0 -10.89482,0.2784 -16.23146,0.8208 -2.66857,0.2712 -5.31745,0.6096 -7.94497,1.0128 -7.88353,1.2072 -15.57626,2.99809 -23.03307,5.32465 -4.97161,1.5504 -9.83834,3.3408 -14.58674,5.35537 -7.12249,3.02208 -13.97906,6.55033 -20.52579,10.54033 -4.36465,2.66016 -8.59129,5.52625 -12.6665,8.58313 -4.07496,3.05713 -7.99849,6.30457 -11.75761,9.73178 -1.87921,1.7136 -3.71785,3.47208 -5.51329,5.27328 -1.7952,1.8024 -3.54884,3.64441 -5.25716,5.52985 -1.70808,1.8864 -3.37162,3.8124 -4.98913,5.77849 -1.61736,1.9656 -3.18998,3.9732 -4.71358,6.01681 -1.52352,2.0424 -2.99878,4.1256 -4.42508,6.24336 -7.13283,10.5905 -13.02954,22.08723 -17.48124,34.28237 -0.8904,2.43912 -1.72272,4.90537 -2.49588,7.39921 -0.7728,2.4924 -1.4868,5.01313 -2.13936,7.55713 -1.30512,5.08873 -2.365928,10.27417 -3.168845,15.54602 -0.40152,2.63592 -0.738961,5.29345 -1.010161,7.97041 -0.541921,5.35321 -0.819121,10.78634 -0.819121,16.28282 0.0074,2.57497 0.072,5.13577 0.1992,7.68217 0.1272,2.54641 0.314641,5.07697 0.560161,7.59217 0.24528,2.51449 0.549121,5.01529 0.910081,7.49617 1.444567,9.92498 3.803975,19.56435 6.992745,28.82644 1.59432,4.63105 3.39586,9.16633 5.3942,13.59674 0.99912,2.2152 2.04816,4.40497 3.14453,6.56521 1.09608,2.16 2.23992,4.29312 3.43037,6.39625 0.44568,0.7872 0.92952,1.5504 1.38816,2.3304 1.99153,3.3828 4.07399,6.70825 6.30308,9.92641 4.11392,5.93929 8.62226,11.58698 13.48946,16.90443 1.62217,1.7736 3.28429,3.50832 4.98517,5.2056 1.7016,1.69921 3.43968,3.35737 5.21593,4.97713 1.776,1.62 3.59112,3.20112 5.44032,4.74049 11.09786,9.23545 23.48572,16.99178 36.87821,22.95579 2.23201,0.9936 4.49209,1.9392 6.77809,2.832 4.57321,1.7856 9.25201,3.36624 14.02682,4.73089 7.16161,2.0472 14.53874,3.60672 22.09419,4.6392 2.5188,0.3432 5.05825,0.6288 7.61473,0.8544 l -0.007,-167.88406 -29.77324,31.0558 v 106.14494 c -8.72593,-2.98632 -17.12498,-6.86065 -25.06491,-11.56153 v -68.43897 l -36.58061,38.15597 c -1.1928,-1.4664 -2.3544,-2.95993 -3.48649,-4.47625 -2.2632,-3.03264 -4.40328,-6.16129 -6.41201,-9.37897 -1.00464,-1.608 -1.97545,-3.24049 -2.91375,-4.89265 -0.93792,-1.6512 -1.84248,-3.32544 -2.71251,-5.0184 -0.87,-1.69441 -1.70568,-3.40801 -2.50611,-5.14153 -0.8004,-1.7328 -1.56552,-3.48553 -2.29464,-5.25673 -1.45776,-3.54192 -2.77056,-7.15753 -3.93159,-10.83745 -2.32224,-7.36153 -4.03613,-14.98418 -5.08654,-22.80795 -0.0288,-0.216 -0.0456,-0.444 -0.0744,-0.6624 -0.46056,-3.56233 -0.78888,-7.16473 -0.96912,-10.80338 -0.007,-0.144 -0.0223,-0.2736 -0.0288,-0.4104 -0.0936,-2.0016 -0.144,-4.01376 -0.1488,-6.03625 0,-4.70544 0.2376,-9.35545 0.70248,-13.93826 0.46392,-4.5828 1.15344,-9.09769 2.05848,-13.53505 0.90504,-4.43665 2.02488,-8.79674 3.34832,-13.06514 0.66168,-2.1336 1.37592,-4.24561 2.1384,-6.33361 1.52424,-4.17577 3.24598,-8.25553 5.15454,-12.22874 1.90872,-3.9732 4.00334,-7.83985 6.27363,-11.58745 2.26968,-3.74713 4.7149,-7.37617 7.3237,-10.87514 2.60857,-3.49872 5.38057,-6.86881 8.30521,-10.09705 2.92441,-3.22704 6.00145,-6.31321 9.21914,-9.24697 3.2184,-2.93377 6.57721,-5.71489 10.06537,-8.33161 3.48817,-2.61673 7.10665,-5.06929 10.84273,-7.34617 1.86721,-1.1376 3.76561,-2.23441 5.69185,-3.28273 3.85105,-2.0976 7.81489,-4.01688 11.87906,-5.74129 2.0328,-0.8616 4.09104,-1.6752 6.17257,-2.43936 12.48793,-4.58664 25.83603,-7.38913 39.73373,-8.09593 2.316,-0.12 4.64833,-0.168 6.99361,-0.168 2.3448,0 4.67641,0.048 6.99313,0.168 16.21394,0.8256 31.67956,4.49953 45.90558,10.53529 6.09721,2.58673 11.96738,5.60857 17.57114,9.02402 1.86721,1.1376 3.70729,2.3208 5.51449,3.54408 3.61609,2.45016 7.10689,5.07025 10.46305,7.84873 1.67761,1.3896 3.32113,2.81809 4.93033,4.28497 3.21793,2.934 6.29569,6.01921 9.22081,9.24697 2.92441,3.22824 5.69641,6.59833 8.30497,10.09705 1.30321,1.74961 2.56825,3.53065 3.78937,5.34433 1.2216,1.812 2.4012,3.65761 3.53592,5.53081 2.27041,3.7476 4.36321,7.61425 6.27241,11.58745 0.9528,1.98721 1.86241,3.99865 2.72089,6.03769 4.29864,10.19354 7.39705,21.02043 9.11545,32.30308 0.6888,4.51225 1.1544,9.09626 1.3896,13.74314 0.12,2.32321 0.168,4.66345 0.168,7.01689 -0.072,19.51875 -4.33273,38.65061 -12.31898,56.1608 -2.3952,5.25264 -5.12736,10.36009 -8.18377,15.28826 -3.05592,4.92744 -6.43633,9.67537 -10.12849,14.21138 L 324.1022,344.9922 v 68.44041 c -7.93993,4.70088 -16.33874,8.57497 -25.06491,11.56153 V 318.84656 l -29.77324,-31.0558 v 167.88406 c 2.55744,-0.216 5.09496,-0.5112 7.61353,-0.8544 7.55569,-1.032 14.93306,-2.59272 22.09443,-4.6392 4.77408,-1.36321 9.45289,-2.94505 14.02514,-4.73089 4.5732,-1.7856 9.04129,-3.7776 13.39081,-5.96185 10.87418,-5.46096 21.01827,-12.12985 30.26572,-19.82594 1.84801,-1.53841 3.66361,-3.12049 5.44057,-4.74049 1.776,-1.62 3.51553,-3.2796 5.21617,-4.97713 1.6992,-1.6992 3.36384,-3.43272 4.98625,-5.2056 4.86672,-5.31745 9.37585,-10.96514 13.48969,-16.90443 2.74249,-3.95928 5.31001,-8.04793 7.69081,-12.25417 1.19041,-2.10241 2.33521,-4.23673 3.43033,-6.39769 2.1936,-4.32121 4.194,-8.75473 5.99305,-13.28858 3.59808,-9.06721 6.38856,-18.53522 8.28529,-28.31164 0.948,-4.88808 1.6728,-9.85273 2.1624,-14.88314 0.2448,-2.5152 0.4344,-5.04696 0.5592,-7.59337 0.12,-2.5464 0.192,-5.1072 0.192,-7.68217 0,-5.3028 -0.2712,-10.54105 -0.7752,-15.71114 -0.0178,-0.192 -0.024,-0.3816 -0.048,-0.5712 -0.2712,-2.67696 -0.6072,-5.33449 -1.0104,-7.97041 -1.0896,-7.15969 -2.69257,-14.14394 -4.70065,-20.95635 -0.216,-0.7128 -0.3888,-1.4376 -0.6072,-2.1456 -0.7728,-2.49384 -1.6056,-4.96009 -2.49576,-7.39921 -4.45153,-12.19562 -10.34666,-23.69187 -17.47995,-34.28237 -1.4256,-2.1168 -2.9016,-4.19856 -4.42488,-6.24192 -0.3264,-0.43681 -0.6792,-0.85681 -1.0104,-1.28881 -1.2144,-1.5936 -2.43289,-3.18336 -3.70489,-4.72848 -1.6176,-1.96561 -3.28056,-3.89209 -4.98888,-5.77729 -0.83281,-0.9192 -1.71121,-1.8 -2.56489,-2.69952 -0.8976,-0.94321 -1.7736,-1.91041 -2.69208,-2.83153 -1.7952,-1.8 -3.63433,-3.55992 -5.51329,-5.27328 -0.8712,-0.79441 -1.7832,-1.54561 -2.67408,-2.32321 -2.1,-1.8312 -4.24969,-3.60768 -6.44569,-5.32848 -0.8808,-0.69121 -1.7424,-1.40881 -2.63784,-2.08081 -2.03761,-1.5288 -4.11313,-3.00912 -6.22489,-4.44024 -2.11201,-1.43041 -4.25905,-2.81257 -6.44161,-4.14289 -1.2552,-0.7632 -2.54592,-1.4736 -3.82225,-2.2032 -0.9456,-0.54 -1.8696,-1.1112 -2.82552,-1.632 -2.2488,-1.22641 -4.53289,-2.39761 -6.84577,-3.51457 -7.59697,-3.672 -15.54626,-6.71977 -23.75739,-9.15481 -6.34441,-1.8816 -12.84866,-3.38545 -19.49763,-4.46593 -3.45792,-0.5616 -6.95161,-1.0152 -10.48057,-1.3488 -4.97065,-0.4704 -10.00129,-0.7344 -15.09434,-0.7344 z m 0.001,45.8571 c -6.10105,0 -12.1421,1.2048 -17.77874,3.54697 -5.63593,2.3424 -10.7573,5.7744 -15.0713,10.10137 -4.31377,4.32745 -7.73594,9.46465 -10.07114,15.11786 -2.3352,5.65417 -3.53592,11.71322 -3.53592,17.83274 0,6.12025 1.2024,12.1793 3.53592,17.83347 2.3352,5.65344 5.75737,10.79065 10.07114,15.11738 4.314,4.32768 9.43537,7.75969 15.0713,10.10161 5.63664,2.3424 11.67769,3.54721 17.77874,3.54721 6.10057,0 12.14186,-1.20481 17.77826,-3.54721 5.63617,-2.3424 10.75778,-5.77393 15.07154,-10.10161 4.31377,-4.32673 7.73617,-9.46394 10.07114,-15.11738 2.3352,-5.65417 3.53592,-11.71322 3.53664,-17.83347 -7.2e-4,-6.11952 -1.2024,-12.17857 -3.53664,-17.83274 -2.33521,-5.65321 -5.75737,-10.79041 -10.07114,-15.11786 -4.31376,-4.32697 -9.43537,-7.75945 -15.07154,-10.10137 -5.6364,-2.34241 -11.67769,-3.54697 -17.77826,-3.54697 z m 0.3984,11.72858 c 9.11353,0 17.8541,3.63168 24.29859,10.09585 6.44449,6.46441 10.06538,15.23186 10.06538,24.37395 0,9.14138 -3.62089,17.90883 -10.06538,24.37324 -6.44449,6.46416 -15.18506,10.09585 -24.29859,10.09585 -9.11329,0 -17.85386,-3.63217 -24.29787,-10.09657 -6.44449,-6.46369 -10.06466,-15.23114 -10.06466,-24.37252 0,-9.14209 3.62017,-17.90906 10.06466,-24.37323 6.44401,-6.46441 15.18458,-10.09609 24.29787,-10.09657 z m -0.168,11.29801 c -6.17017,0 -12.0881,2.45929 -16.4513,6.83569 -4.36273,4.37713 -6.81409,10.31305 -6.81409,16.50242 7.2e-4,6.18937 2.45208,12.12482 6.81457,16.50123 4.36344,4.3764 10.28065,6.83568 16.45082,6.83568 6.17041,0 12.08858,-2.4588 16.45178,-6.8352 4.36345,-4.37641 6.81481,-10.31234 6.81481,-16.50171 0,-3.06456 -0.6024,-6.09984 -1.7712,-8.93137 -1.1688,-2.83128 -2.88241,-5.40433 -5.04361,-7.57105 -2.16,-2.1672 -4.72513,-3.88608 -7.54801,-5.05897 -2.82288,-1.1736 -5.84809,-1.776 -8.90377,-1.776 z"
       fill="white"
       style="fill:#1d5a73;fill-opacity:0.05;stroke-width:6.35019" />
  </g>
</svg>
