<svg
   width="12.699949mm"
   height="12.70001mm"
   viewBox="0 0 12.699949 12.70001"
   xmlns:inkscape="http://www.inkscape.org/namespaces/inkscape"
   xmlns:sodipodi="http://sodipodi.sourceforge.net/DTD/sodipodi-0.dtd"
   xmlns="http://www.w3.org/2000/svg"
   xmlns:svg="http://www.w3.org/2000/svg">
  <g
     transform="translate(-57.150001,-112.18326)">
    <path
       d="m 63.491304,112.73632 c -0.200913,0 -0.39945,0.0102 -0.595125,0.0301 -0.09784,0.01 -0.194952,0.0224 -0.291299,0.0371 -0.28904,0.0443 -0.571095,0.10993 -0.844489,0.19524 -0.182286,0.0568 -0.36073,0.12249 -0.53482,0.19636 -0.261147,0.11081 -0.512538,0.24018 -0.752567,0.38648 -0.160026,0.0975 -0.315001,0.20263 -0.46441,0.31472 -0.149412,0.11209 -0.29326,0.23116 -0.431088,0.35683 -0.06891,0.0628 -0.136316,0.12731 -0.20215,0.19335 -0.06583,0.0661 -0.130111,0.13363 -0.192746,0.20277 -0.06263,0.0691 -0.123619,0.13978 -0.182925,0.21188 -0.0593,0.0721 -0.116959,0.14567 -0.17282,0.22061 -0.05586,0.0749 -0.10995,0.15127 -0.162244,0.22892 -0.261522,0.38833 -0.477722,0.80987 -0.640941,1.25702 -0.03265,0.0895 -0.06317,0.17987 -0.09151,0.27131 -0.02833,0.0914 -0.05451,0.18382 -0.07844,0.2771 -0.04786,0.18659 -0.08674,0.37672 -0.116184,0.57002 -0.01472,0.0967 -0.0271,0.19409 -0.03704,0.29225 -0.01987,0.19628 -0.03003,0.39549 -0.03003,0.59703 2.73e-4,0.0944 0.0027,0.18831 0.0073,0.28169 0.0047,0.0934 0.01154,0.18615 0.02054,0.27838 0.009,0.0922 0.02013,0.18389 0.03337,0.27486 0.05297,0.36392 0.139471,0.71736 0.256385,1.05697 0.05846,0.1698 0.124508,0.3361 0.197777,0.49855 0.03664,0.0812 0.0751,0.16151 0.115292,0.24072 0.04019,0.0792 0.08212,0.15741 0.125773,0.23453 0.01635,0.0289 0.03408,0.0568 0.0509,0.0853 0.07302,0.12404 0.14937,0.24597 0.231099,0.36398 0.150835,0.21777 0.31613,0.42485 0.494585,0.61983 0.05948,0.065 0.120423,0.12863 0.182783,0.19086 0.06236,0.0623 0.12611,0.12311 0.191243,0.1825 0.06513,0.0594 0.131666,0.11737 0.19947,0.17382 0.406896,0.33864 0.861085,0.62303 1.352109,0.84171 0.08181,0.0364 0.164707,0.0711 0.248528,0.10384 0.167663,0.0654 0.339216,0.12343 0.514283,0.17347 0.262567,0.0751 0.533052,0.13225 0.810077,0.17011 0.09234,0.0126 0.185452,0.023 0.279192,0.0314 l -2.8e-4,-6.15576 -1.09162,1.13871 v 3.892 c -0.319937,-0.10951 -0.627884,-0.25156 -0.918997,-0.42393 v -2.50943 l -1.341203,1.39905 c -0.04372,-0.0539 -0.08635,-0.10853 -0.12784,-0.16413 -0.08299,-0.1112 -0.161442,-0.22591 -0.235095,-0.3439 -0.03684,-0.0589 -0.07243,-0.11881 -0.106831,-0.1794 -0.03439,-0.0606 -0.06756,-0.12193 -0.09945,-0.184 -0.0319,-0.0622 -0.06254,-0.12497 -0.09189,-0.18853 -0.02935,-0.0635 -0.0574,-0.1278 -0.08413,-0.19275 -0.05345,-0.12986 -0.101581,-0.26244 -0.144149,-0.39737 -0.08514,-0.26992 -0.147983,-0.54941 -0.186496,-0.83629 -0.0011,-0.008 -0.0016,-0.0163 -0.0027,-0.0243 -0.01689,-0.13062 -0.02892,-0.2627 -0.03553,-0.39612 -2.71e-4,-0.005 -8.16e-4,-0.01 -0.0011,-0.015 -0.0034,-0.0734 -0.0053,-0.14718 -0.0055,-0.22134 0,-0.17252 0.0087,-0.34302 0.02576,-0.51106 0.01701,-0.16804 0.04229,-0.33359 0.07548,-0.49629 0.03318,-0.16268 0.07424,-0.32254 0.122763,-0.47906 0.02426,-0.0782 0.05045,-0.15566 0.0784,-0.23222 0.05589,-0.15311 0.119013,-0.30271 0.188989,-0.44839 0.06998,-0.14569 0.146781,-0.28747 0.230019,-0.42488 0.08322,-0.13739 0.172868,-0.27046 0.268512,-0.39875 0.09565,-0.12829 0.19728,-0.25186 0.304514,-0.37023 0.107227,-0.11833 0.22004,-0.23148 0.338017,-0.33905 0.118001,-0.10757 0.241146,-0.20955 0.369042,-0.3055 0.127895,-0.096 0.260565,-0.18587 0.397541,-0.26936 0.06847,-0.0417 0.13807,-0.082 0.208689,-0.12037 0.141191,-0.0769 0.286525,-0.14728 0.43554,-0.21051 0.07451,-0.0316 0.149991,-0.0614 0.226315,-0.0895 0.457868,-0.16818 0.947262,-0.27094 1.45682,-0.29685 0.08491,-0.005 0.170434,-0.006 0.25642,-0.006 0.08601,0 0.171459,0.002 0.256396,0.006 0.594473,0.0302 1.161517,0.16498 1.683112,0.38629 0.223543,0.0948 0.438776,0.20564 0.644229,0.33088 0.06847,0.0417 0.135929,0.085 0.202194,0.12995 0.132574,0.0898 0.260564,0.18591 0.383616,0.28779 0.06154,0.051 0.121773,0.10333 0.180773,0.15712 0.117977,0.10758 0.230832,0.2207 0.338076,0.33905 0.107219,0.11837 0.208852,0.24194 0.3045,0.37023 0.04782,0.0642 0.09416,0.12946 0.138932,0.19595 0.04478,0.0665 0.08804,0.13412 0.129642,0.20281 0.08324,0.1374 0.159981,0.27919 0.229971,0.42487 0.03497,0.0729 0.06826,0.14661 0.09977,0.22138 0.157605,0.37377 0.271205,0.77075 0.33421,1.18445 0.02522,0.16545 0.0423,0.33353 0.05092,0.50392 0.0043,0.0851 0.0065,0.17099 0.0065,0.25728 -0.0029,0.71569 -0.158863,1.41719 -0.451674,2.05923 -0.08785,0.1926 -0.187991,0.37988 -0.300054,0.56058 -0.11204,0.18067 -0.235978,0.35476 -0.371347,0.52108 l -1.338936,-1.39671 v 2.5095 c -0.291113,0.17236 -0.599059,0.31441 -0.918997,0.42392 v -3.89209 l -1.091619,-1.13871 v 6.15576 c 0.09376,-0.008 0.186803,-0.0187 0.279145,-0.0313 0.277026,-0.0379 0.547509,-0.0951 0.810076,-0.1701 0.175045,-0.05 0.346597,-0.10799 0.514238,-0.17347 0.167663,-0.0655 0.331485,-0.13852 0.490953,-0.21861 0.398706,-0.20022 0.770635,-0.44475 1.109688,-0.72695 0.06781,-0.0564 0.134321,-0.11442 0.199469,-0.17382 0.06512,-0.0594 0.128897,-0.12025 0.19125,-0.18249 0.06235,-0.0623 0.123332,-0.12586 0.182821,-0.19087 0.178445,-0.19497 0.343756,-0.40205 0.494586,-0.61984 0.100562,-0.14517 0.194696,-0.29508 0.281986,-0.44931 0.04366,-0.0771 0.08559,-0.15535 0.125777,-0.23458 0.0804,-0.15845 0.153764,-0.32101 0.219725,-0.48726 0.131924,-0.33246 0.234231,-0.67962 0.303779,-1.03809 0.03476,-0.17923 0.06133,-0.36127 0.07932,-0.54571 0.009,-0.0922 0.01588,-0.18506 0.02054,-0.27843 0.0047,-0.0934 0.0071,-0.18727 0.0073,-0.28168 0,-0.19444 -0.0099,-0.38651 -0.02843,-0.57607 -6.53e-4,-0.007 -0.001,-0.014 -0.0016,-0.021 -0.0099,-0.0982 -0.02231,-0.1956 -0.03704,-0.29226 -0.03998,-0.26252 -0.09872,-0.51861 -0.172344,-0.7684 -0.0077,-0.0261 -0.01423,-0.0528 -0.02228,-0.0786 -0.02833,-0.0915 -0.05886,-0.18187 -0.0915,-0.27131 -0.163217,-0.44717 -0.379357,-0.8687 -0.6409,-1.25702 -0.0523,-0.0776 -0.106382,-0.15394 -0.162239,-0.22887 -0.01197,-0.016 -0.02491,-0.0314 -0.03705,-0.0473 -0.04449,-0.0584 -0.0892,-0.11672 -0.135836,-0.17338 -0.0593,-0.0721 -0.120282,-0.14271 -0.182915,-0.21183 -0.03057,-0.0337 -0.0627,-0.066 -0.09404,-0.099 -0.03288,-0.0346 -0.065,-0.07 -0.0987,-0.10383 -0.06584,-0.066 -0.133251,-0.13053 -0.202146,-0.19335 -0.03199,-0.0292 -0.06543,-0.0567 -0.09805,-0.0852 -0.07705,-0.0672 -0.155813,-0.13228 -0.236328,-0.19538 -0.03231,-0.0254 -0.06385,-0.0517 -0.09672,-0.0763 -0.07472,-0.056 -0.150807,-0.11033 -0.228224,-0.16281 -0.07744,-0.0524 -0.156161,-0.10313 -0.236186,-0.1519 -0.04599,-0.0281 -0.09334,-0.054 -0.140144,-0.0808 -0.03465,-0.0198 -0.06852,-0.0407 -0.103588,-0.0599 -0.08247,-0.045 -0.166197,-0.0879 -0.250995,-0.12886 -0.27854,-0.13464 -0.570001,-0.2464 -0.871056,-0.33569 -0.232624,-0.069 -0.471093,-0.12413 -0.71487,-0.16374 -0.126778,-0.0206 -0.254884,-0.0372 -0.384269,-0.0495 -0.18224,-0.0172 -0.366691,-0.0269 -0.553424,-0.0269 z m 4.6e-5,1.68144 c -0.223683,0 -0.445179,0.0442 -0.651843,0.13005 -0.20664,0.0859 -0.394421,0.21173 -0.552585,0.37038 -0.158164,0.15868 -0.283638,0.34704 -0.369251,0.55433 -0.08559,0.20732 -0.129643,0.42948 -0.129643,0.65386 0,0.22441 0.04406,0.44659 0.129643,0.6539 0.08562,0.20729 0.211087,0.39566 0.369251,0.55431 0.158164,0.15868 0.345945,0.28452 0.552585,0.37039 0.206664,0.0859 0.42816,0.13006 0.651843,0.13006 0.223683,0 0.445178,-0.0442 0.651842,-0.13006 0.206641,-0.0859 0.394421,-0.21171 0.552586,-0.37039 0.158163,-0.15865 0.283637,-0.34702 0.369251,-0.55431 0.08559,-0.20731 0.129643,-0.42949 0.129665,-0.6539 -2.2e-5,-0.22438 -0.04408,-0.44654 -0.129665,-0.65386 -0.08562,-0.20729 -0.211088,-0.39565 -0.369251,-0.55433 -0.158165,-0.15865 -0.345945,-0.2845 -0.552586,-0.37038 -0.206664,-0.0859 -0.428159,-0.13005 -0.651842,-0.13005 z m 0.01462,0.43004 c 0.33414,0 0.654613,0.13316 0.890893,0.37019 0.23628,0.23703 0.369042,0.5585 0.369042,0.89371 0,0.33519 -0.132762,0.65666 -0.369042,0.89368 -0.23628,0.23703 -0.556753,0.37019 -0.890893,0.37019 -0.334141,0 -0.654613,-0.13318 -0.89087,-0.37021 -0.236281,-0.237 -0.369019,-0.55847 -0.369019,-0.89366 0,-0.33521 0.132738,-0.65666 0.369019,-0.89369 0.236257,-0.23703 0.556729,-0.37019 0.89087,-0.37021 z m -0.0061,0.41427 c -0.226221,0 -0.443199,0.0902 -0.603181,0.25063 -0.159956,0.1605 -0.249831,0.37816 -0.249831,0.60509 2.4e-5,0.22695 0.0899,0.44459 0.249855,0.60505 0.15998,0.16047 0.376936,0.25064 0.603157,0.25064 0.226245,0 0.443223,-0.0901 0.603203,-0.25062 0.15998,-0.16046 0.249855,-0.37812 0.249855,-0.60507 0,-0.11236 -0.02206,-0.22365 -0.06494,-0.32747 -0.04286,-0.10382 -0.105683,-0.19817 -0.184917,-0.27762 -0.07921,-0.0795 -0.173252,-0.14248 -0.276747,-0.18549 -0.103494,-0.043 -0.214416,-0.0651 -0.326456,-0.0651 z"
       fill="#ffffff"
       style="fill:#f2c53d;fill-opacity:1;stroke-width:0.232834" />
  </g>
</svg>
