<svg
   width="48.000008mm"
   height="48mm"
   viewBox="0 0 48.000008 48"
   xmlns="http://www.w3.org/2000/svg"
>
   <path
      style="display:inline;fill:#f2c53d;fill-opacity:1;stroke-width:0.232998;stroke-linecap:round;stroke-linejoin:round;stroke-opacity:0.273779"
      d="m 78.758625,37.32215 c -0.82836,1.1e-5 -1.646978,0.04203 -2.453727,0.124219 -0.403399,0.0411 -0.803847,0.0922 -1.201088,0.15309 -1.191744,0.182674 -2.354694,0.453266 -3.481962,0.80499 -0.751504,0.23448 -1.487273,0.505065 -2.205098,0.809641 -1.076746,0.456855 -2.113258,0.990289 -3.102913,1.593507 -0.659764,0.402142 -1.298772,0.835448 -1.914807,1.297598 -0.616032,0.462154 -1.209128,0.9531 -1.777411,1.471227 -0.284141,0.259061 -0.562035,0.52494 -0.833475,0.797239 -0.271452,0.272299 -0.536468,0.550965 -0.79472,0.835995 v 1.95e-4 c -0.258217,0.285 -0.509692,0.576177 -0.754219,0.873398 v 1.91e-4 c -0.244515,0.297222 -0.482231,0.600499 -0.712553,0.909443 v 1.92e-4 c -0.230321,0.308943 -0.45333,0.623584 -0.668951,0.943744 -1.078279,1.601048 -1.969696,3.339076 -2.642671,5.182825 -0.134592,0.368737 -0.260427,0.741601 -0.377303,1.118536 v 1.95e-4 c -0.11685,0.376875 -0.22479,0.757804 -0.32343,1.142371 -0.197318,0.769305 -0.357634,1.553202 -0.47904,2.350246 -0.0607,0.398498 -0.111735,0.800295 -0.152704,1.204966 v 1.95e-4 c -0.08192,0.80928 -0.123829,1.630515 -0.123829,2.461477 0.0011,0.389258 0.01102,0.776385 0.03023,1.161364 0.01924,0.384979 0.04757,0.767539 0.08469,1.147797 v 1.95e-4 c 0.03709,0.380194 0.083,0.75804 0.137588,1.133071 0.218385,1.500447 0.575055,2.957806 1.057107,4.358068 0.241016,0.700103 0.513356,1.385712 0.815452,2.055496 0.151051,0.33489 0.309646,0.665925 0.475358,0.992577 0.165717,0.326655 0.338595,0.64902 0.518577,0.966994 0.06739,0.119059 0.140516,0.234304 0.209869,0.35211 0.301087,0.511421 0.615866,1.014158 0.952849,1.500687 0.6219,0.897874 1.303433,1.751727 2.039217,2.55566 0.245261,0.267975 0.496523,0.53031 0.753638,0.786964 0.257111,0.256658 0.519964,0.50757 0.788516,0.752475 h 1.95e-4 c 0.268527,0.244864 0.542674,0.483953 0.822237,0.716626 1.677642,1.39626 3.550318,2.568811 5.574858,3.470525 0.337414,0.150281 0.679103,0.29307 1.024744,0.428074 0.691335,0.270041 1.398578,0.508984 2.120411,0.715268 1.082666,0.309409 2.197894,0.545228 3.340107,0.701314 0.380738,0.05204 0.764547,0.09514 1.151094,0.129255 l -0.0011,-25.380825 -4.500891,4.695062 v 16.04709 A 20.444128,20.508273 0 0 1 68.364327,78.935522 V 68.588862 L 62.834432,74.35731 C 62.654154,74.135501 62.478395,73.909848 62.307331,73.680607 61.9652,73.222121 61.641687,72.74914 61.338008,72.262668 61.186141,72.01939 61.039384,71.772827 60.897533,71.522987 60.755749,71.273271 60.618987,71.020288 60.487478,70.764309 l -1.91e-4,-1.91e-4 c -0.131547,-0.256057 -0.257663,-0.515051 -0.37866,-0.777086 -0.120998,-0.262039 -0.236693,-0.527007 -0.346879,-0.79472 -0.220369,-0.535436 -0.418831,-1.082051 -0.594346,-1.638465 -0.351041,-1.112888 -0.610151,-2.265245 -0.768945,-3.448048 -0.0045,-0.03326 -0.0069,-0.06707 -0.01125,-0.10038 -0.06963,-0.538572 -0.119284,-1.083124 -0.146501,-1.633235 -0.0011,-0.02078 -0.0034,-0.04122 -0.0043,-0.06201 -0.01406,-0.302673 -0.02164,-0.606814 -0.02246,-0.91254 -4e-6,-0.711378 0.03604,-1.414417 0.106196,-2.107237 0.07014,-0.692813 0.174383,-1.375392 0.311221,-2.046193 0.136833,-0.6708 0.306078,-1.329938 0.506171,-1.975268 0.100043,-0.322665 0.20802,-0.64185 0.323235,-0.957499 0.230427,-0.631307 0.490699,-1.248077 0.779217,-1.848726 0.28854,-0.600705 0.605194,-1.185233 0.94839,-1.751832 0.343148,-0.566498 0.712763,-1.115134 1.107106,-1.644087 0.394372,-0.528998 0.813405,-1.038473 1.255545,-1.526457 0.442111,-0.487954 0.907291,-0.95448 1.393711,-1.397978 0.486465,-0.443532 0.994275,-0.864001 1.521616,-1.259614 0.527299,-0.395581 1.074315,-0.766373 1.639047,-1.110593 0.28239,-0.172122 0.56931,-0.337654 0.860411,-0.496287 0.582158,-0.317239 1.181397,-0.607271 1.795824,-0.867972 0.307241,-0.130361 0.61842,-0.2532 0.933083,-0.368775 1.887922,-0.693428 3.905685,-1.117107 6.006612,-1.223955 0.350164,-0.01781 0.702721,-0.02674 1.057298,-0.02674 0.354582,0 0.706939,0.0089 1.057107,0.02674 h 1.95e-4 c 2.451091,0.124657 4.788868,0.680239 6.939502,1.59273 h 1.95e-4 c 0.92166,0.391062 1.808922,0.847925 2.65604,1.364259 h 1.91e-4 c 0.282342,0.172095 0.560281,0.35067 0.833479,0.535822 0.546571,0.370403 1.074286,0.766497 1.581687,1.186557 0.253665,0.209996 0.502073,0.42606 0.745302,0.647828 0.486503,0.443554 0.951739,0.909953 1.393909,1.397978 0.442141,0.487984 0.86117,0.997459 1.255546,1.526457 0.197183,0.264499 0.38823,0.533794 0.572831,0.807897 l 1.95e-4,1.95e-4 c 0.184549,0.274031 0.362731,0.552799 0.534271,0.835995 0.3432,0.566599 0.659655,1.151127 0.948195,1.751832 0.144259,0.30033 0.28146,0.60453 0.411409,0.912736 0.649812,1.541094 1.118217,3.177928 1.378021,4.883617 0.10392,0.682238 0.174371,1.375253 0.209869,2.077782 0.01778,0.35133 0.02674,0.705033 0.02674,1.060788 -0.01196,2.95085 -0.65499,5.843189 -1.862292,8.490375 -0.362186,0.794161 -0.77517,1.566308 -1.237133,2.311295 -0.461963,0.744983 -0.972983,1.462782 -1.531111,2.148515 l -5.520595,-5.758762 v 10.346855 a 20.444128,20.508273 0 0 1 -3.78911,1.747955 V 64.636387 L 80.8622,59.941325 V 85.32215 c 0.386554,-0.03412 0.77016,-0.07722 1.150898,-0.129255 1.14222,-0.156086 2.257441,-0.391905 3.340108,-0.701314 0.721721,-0.20625 1.42899,-0.445279 2.120221,-0.715268 0.691282,-0.270011 1.366725,-0.571065 2.024296,-0.901302 1.643884,-0.825574 3.177327,-1.833822 4.575305,-2.997297 0.279608,-0.232707 0.553868,-0.471724 0.822428,-0.716626 0.268527,-0.244875 0.531439,-0.495851 0.788521,-0.752475 0.257145,-0.256684 0.508537,-0.518955 0.753829,-0.786964 0.735788,-0.803933 1.417317,-1.657786 2.039217,-2.55566 0.414604,-0.59859 0.802759,-1.216658 1.162722,-1.852602 v -1.95e-4 c 0.179981,-0.317974 0.35286,-0.640339 0.518575,-0.966994 0.33143,-0.653303 0.63399,-1.323605 0.90595,-2.008989 0.54392,-1.37076 0.96573,-2.802189 1.25244,-4.280166 0.14336,-0.73899 0.25289,-1.489542 0.32712,-2.250057 v -1.95e-4 c 0.0371,-0.380258 0.0655,-0.762818 0.0847,-1.147797 0.0192,-0.384979 0.0293,-0.772106 0.0302,-1.161364 0,-0.801704 -0.0409,-1.593656 -0.11724,-2.375242 -0.003,-0.02865 -0.004,-0.05781 -0.007,-0.08643 -0.041,-0.404671 -0.092,-0.806468 -0.1527,-1.204966 -0.16487,-1.082363 -0.40709,-2.138337 -0.71062,-3.168219 -0.0318,-0.107678 -0.0587,-0.217545 -0.0918,-0.324593 -0.11687,-0.376935 -0.24271,-0.749799 -0.3773,-1.118536 -0.67299,-1.843782 -1.56417,-3.581751 -2.642479,-5.182825 -0.215596,-0.32013 -0.438661,-0.634831 -0.668952,-0.943744 l -1.95e-4,-1.92e-4 c -0.04929,-0.06612 -0.102555,-0.129165 -0.152509,-0.194756 -0.183461,-0.2409 -0.367841,-0.48126 -0.560044,-0.714878 -0.244522,-0.297221 -0.496001,-0.588398 -0.754219,-0.873398 v -1.95e-4 c -0.12603,-0.139095 -0.258563,-0.271822 -0.387765,-0.407921 -0.135551,-0.142785 -0.267979,-0.288664 -0.406954,-0.428074 -0.271418,-0.272269 -0.549368,-0.538208 -0.833475,-0.797239 h -1.95e-4 c -0.131869,-0.120229 -0.269521,-0.233847 -0.404044,-0.351143 -0.317637,-0.276964 -0.642391,-0.545415 -0.97436,-0.805568 -0.133278,-0.104452 -0.263302,-0.21285 -0.398812,-0.314516 h -1.95e-4 C 92.810204,41.87412 92.496588,41.650241 92.177388,41.433918 91.858139,41.217562 91.533542,41.008694 91.20361,40.807597 91.013976,40.69201 90.818769,40.584892 90.625738,40.47448 c -0.142774,-0.08167 -0.282514,-0.167902 -0.427106,-0.246694 -0.339987,-0.185272 -0.685163,-0.36234 -1.034821,-0.53136 l -1.95e-4,-1.95e-4 C 88.015137,39.1411 86.81358,38.680524 85.572359,38.312402 84.613233,38.027942 83.629949,37.800594 82.624866,37.637248 82.102093,37.552284 81.57398,37.483693 81.040464,37.433191 80.289102,37.362069 79.528733,37.322158 78.75882,37.32215 Z m 1.95e-4,6.932718 a 7.0229467,7.0449817 0 0 0 -7.023026,7.044922 7.0229467,7.0449817 0 0 0 7.023026,7.044923 7.0229467,7.0449817 0 0 0 7.023022,-7.044923 7.0229467,7.0449817 0 0 0 -7.023022,-7.044922 z m 0.06027,1.773151 a 5.1948384,5.2111378 0 0 1 5.19484,5.211119 5.1948384,5.2111378 0 0 1 -5.19484,5.21112 5.1948384,5.2111378 0 0 1 -5.194645,-5.21112 5.1948384,5.2111378 0 0 1 5.194645,-5.211119 z m -0.02501,1.708036 a 3.5171502,3.5281856 0 0 0 -3.517037,3.528275 3.5171502,3.5281856 0 0 0 3.517037,3.528082 3.5171502,3.5281856 0 0 0 3.517228,-3.528082 3.5171502,3.5281856 0 0 0 -3.517228,-3.528275 z"
   />
</svg>
